<svg width="310" height="50" viewBox="0 0 310 50" fill="none" xmlns="http://www.w3.org/2000/svg">
    <path d="M25 0L30.6129 17.2746H48.7764L34.0818 27.9508L39.6946 45.2254L25 34.5491L10.3054 45.2254L15.9182 27.9508L1.22359 17.2746H19.3871L25 0Z" fill="#202020"/>
    <path d="M90 0L95.6129 17.2746H113.776L99.0818 27.9508L104.695 45.2254L90 34.5491L75.3054 45.2254L80.9182 27.9508L66.2236 17.2746H84.3871L90 0Z" fill="#202020"/>
    <path d="M155 0L160.613 17.2746H178.776L164.082 27.9508L169.695 45.2254L155 34.5491L140.305 45.2254L145.918 27.9508L131.224 17.2746H149.387L155 0Z" fill="#202020"/>
    <path d="M220 0L225.613 17.2746H243.776L229.082 27.9508L234.695 45.2254L220 34.5491L205.305 45.2254L210.918 27.9508L196.224 17.2746H214.387L220 0Z" fill="#202020"/>
    <path d="M285 0L290.613 17.2746H308.776L294.082 27.9508L299.695 45.2254L285 34.5491L270.305 45.2254L275.918 27.9508L261.224 17.2746H279.387L285 0Z" fill="#D9D9D9"/>
</svg>
